# xmcd
#
# Track frame offsets:
#	150
#	13905
#	29692
#	46192
#	67065
#	81587
#	100607
#	115479
#	133440
#	150637
#	163140
#	178137
#	194142
#	212035
#	226877
#	242470
#	260277
#	274195
#	291020
#	307252
#
# Disc length: 4301
#
# Revision: 3
# Processed by: cddbd v1.5.1PL0 Copyright (c) Steve Scherf et al.
# Submitted via: audiograbber 1.83.01
# Normalized: r2:DSETVAR1
#
DISCID=3510cb14
DTITLE=Various Artist - ETE2004_2
DYEAR=2004
DGENRE=
TTITLE0=DJ BOBO - Chihuahua
TTITLE1=Las Ketchup - Aseréjé
TTITLE2=Lou Bega - Mambo n°5
TTITLE3=Ricky Martin - Un, Dos, Tres Maria
TTITLE4=Carrapicho - Tic Tic Tac
TTITLE5=Los del rio - Macarena
TTITLE6=Ko Culture - Le Dirladada des Bronzés
TTITLE7=Jimmy Cliff - Reggae Night
TTITLE8=Gilbert Montagné - Les Sunlights des tropiques
TTITLE9=Bellini - Samba de Janeiro
TTITLE10=King Africa - Bomba
TTITLE11=Gala - Freed From Desire
TTITLE12=Mory Kanté - Yéké Yéké
TTITLE13=Janeiro verde - Brazilia Carnaval
TTITLE14=A.Chabat - G.Darmon - P.Chancy - La Carioca
TTITLE15=Zouk Machine - Maldon
TTITLE16=Miramar - Baila Baila Comigo
TTITLE17=Jestofunk - Say it Again
TTITLE18=DJ Chroma - Boomshakalak
TTITLE19=Cuba Trinidad - Soca Dance
EXTD=
EXTT0=
EXTT1=
EXTT2=
EXTT3=
EXTT4=
EXTT5=
EXTT6=
EXTT7=
EXTT8=
EXTT9=
EXTT10=
EXTT11=
EXTT12=
EXTT13=
EXTT14=
EXTT15=
EXTT16=
EXTT17=
EXTT18=
EXTT19=
PLAYORDER=
